<?xml version="1.0" standalone="yes"?>
<svg xmlns="http://www.w3.org/2000/svg" width="1299" height="1299">
<path style="fill:#000000; stroke:none;" d="M447 253C450.169 259.114 458.225 262.073 464 265.424C477.386 273.193 490.655 281.172 504 289.011C512.011 293.716 520.022 298.44 528 303.201C532.119 305.659 536.367 308.961 541 310.351C545.931 311.83 551.904 311 557 311L587 311L688 311L737 311C744.37 311 753.944 312.601 761 310.301C772.735 306.476 784.389 296.895 795 290.603C814.954 278.772 835.651 267.803 855 255C851.078 250.391 845.173 247.671 840 244.603C831.024 239.281 822.066 233.887 813 228.719C801.563 222.199 790.324 215.318 779 208.603C773.403 205.285 767.252 200.525 761 198.649C756.354 197.255 750.799 198 746 198L718 198L625 198L567 198C558.838 198 547.745 196.062 540 198.818C530.656 202.143 521.499 209.3 513 214.4C491.457 227.325 469.747 242.367 447 253z"/>
<path style="fill:#ffffff; stroke:none;" d="M648 247.432C644.278 247.922 629.182 250.843 635.478 257.349C640.131 262.157 650.944 261.553 657 260.816C660.957 260.334 671.822 256.203 665.677 250.995C661.528 247.478 653.155 246.753 648 247.432z"/>
<path style="fill:#000000; stroke:none;" d="M418 259C414.453 278.107 417 299.583 417 319C417 324.952 414.8 336.456 418.028 341.621C419.863 344.558 424.113 346.293 427 347.989C434.301 352.278 441.643 356.528 449 360.719C466.74 370.827 484.288 381.267 502 391.421C511.063 396.617 520.187 403.407 530 407L530 350C530 343.387 532.112 332.412 529.397 326.329C527.992 323.182 523.815 321.467 521 319.85C513.946 315.798 507.035 311.508 500 307.424C481.933 296.939 463.913 286.348 446 275.6C436.924 270.155 427.618 263.26 418 259M882 259C873.638 266.11 863.41 271.024 854 276.603C837.006 286.679 819.966 296.675 803 306.799L782 319.2C779.171 320.894 774.855 322.513 773.028 325.39C769.785 330.496 772 342.092 772 348L772 407C799.388 394.198 824.728 375.696 851 360.719C858.401 356.5 865.599 351.938 873 347.719C876.228 345.879 880.975 343.971 882.972 340.671C884.999 337.323 884 331.753 884 328L884 297L884 271C884 266.753 884.641 262.486 882 259M549 330L549 414L753 414L753 330L549 330M772 1025C782.883 1021.8 793.297 1013.61 803 1007.8C820.588 997.269 838.42 987.143 856 976.6L876 964.799C878.583 963.254 882.133 961.723 883.397 958.79C885.255 954.475 884 947.626 884 943L884 909L884 787L884 363C874.046 366.15 864.992 373.357 856 378.576C837.263 389.45 818.577 400.454 800 411.6C793.361 415.583 786.634 419.411 780 423.4C777.452 424.932 773.888 426.452 772.603 429.329C770.719 433.551 772 440.451 772 445L772 479L772 600L772 1025M417 364L417 788L417 910L417 944C417 948.614 415.736 955.489 417.603 959.787C418.858 962.674 422.435 964.104 425 965.579C431.347 969.227 437.702 972.871 444 976.603C462.554 987.598 481.404 998.089 500 1009.01C509.1 1014.36 519.567 1022.99 530 1025L530 599L530 478L530 444C530 439.765 531.202 433.297 529.397 429.379C527.98 426.305 523.761 424.727 521 423.15L501 411.579C482.287 400.85 463.708 389.888 445 379.15C436.057 374.016 426.956 366.874 417 364M549 433L549 1033L753 1033L753 433L549 433M883 981C872.405 988.697 860.327 994.85 849 1001.42C833.934 1010.17 819.02 1019.19 804 1028.01C796.987 1032.13 790.034 1036.34 783 1040.42C779.849 1042.25 775.023 1044.19 773.028 1047.38C770.853 1050.86 772 1057.06 772 1061L772 1094C781.953 1090.85 791.008 1083.64 800 1078.42C817.731 1068.13 835.42 1057.75 853 1047.2C861.755 1041.95 876.634 1036.64 882.397 1027.96C884.669 1024.54 884 1019.91 884 1016L884 993C884 989.017 884.552 984.699 883 981M417 983L417 1012C417 1016.78 416.153 1022.58 418.457 1026.96C420.476 1030.8 424.426 1032.85 428 1035C434.3 1038.79 440.695 1042.42 447 1046.2C464.912 1056.95 482.989 1067.43 501 1078.01C510.212 1083.42 519.697 1090.97 530 1094L530 1061C530 1057.15 531.166 1050.91 528.972 1047.53C527.265 1044.9 523.607 1043.52 521 1041.99C514.357 1038.09 507.628 1034.32 501 1030.4C482.434 1019.39 463.717 1008.59 445 997.85C436.318 992.867 426.801 985.243 417 983M549 1052L549 1098L753 1098L753 1052L549 1052z"/>
</svg>
