<?xml version="1.0" encoding="UTF-8"?>
<svg xmlns="http://www.w3.org/2000/svg"
     viewBox="1.19 1.19 14.55 14.55">

<path fill="#000"
d="M 8.4666665,1.190625
A 7.2760415,7.2760415 0 0 0 1.190625,8.4666665
7.2760415,7.2760415 0 0 0 8.4666665,15.742708
7.2760415,7.2760415 0 0 0 15.742708,8.4666665
7.2760415,7.2760415 0 0 0 8.4666665,1.190625 Z

m 5.2823645,4.1930256
c 0.0049,0.0023 0.371828,0.4284479 0.815454,0.947229
l 0.806669,0.9430949
-0.04237,0.037724
c -0.02336,0.020737 -1.176217,1.0146008 -2.562118,2.2086506
L 10.246403,11.691793
9.5725421,11.279415
C 9.194716,11.048548 8.8966374,10.857359 8.8945474,10.844299
8.8913474,10.824039 9.2360595,9.3315245 9.2604165,9.2604165
9.2701165,9.2319545 13.734001,5.3766006 13.749031,5.3836506 Z

M 3.1259073,7.6775674
3.223059,7.7364785
c 2.1273199,1.2969831 2.8191583,1.7252899 2.8189493,1.7440796
-0.000199,0.017882 -0.5810842,2.4976169 -0.5937622,2.5347289
-0.002,0.0058 -0.8146723,-0.485583 -1.8060912,-1.091923
C 2.6507361,10.317024 1.8399318,9.8150167 1.8401977,9.8081867
1.8404637,9.8013594 2.1296218,9.3190304 2.4830525,8.7364175 Z

m 5.8063638,1.6557129
c 0.00197,0.024022 -0.54458,2.3669277 -0.9647989,4.1351477
-0.00892,0.03752 -0.019967,0.06904 -0.025838,0.07597
h -0.00103
C 7.9345671,13.545206 7.4322474,13.241496 6.8228394,12.87002
6.1862314,12.481964 5.7147287,12.185452 5.7148967,12.173422
5.7154727,12.131942 6.326845,9.5589262 6.339148,9.5461921
6.353988,9.5308341 8.9201693,9.3201397 8.9322713,9.3332853 Z

M 8.8123818,11.162626
c 0.0021,-0.0024 0.2646569,0.155086 0.5834269,0.349849
0.3187694,0.194765 0.5885566,0.359686 0.5994466,0.366386
l -0.1245402,0.108004
c -0.057299,0.06312 -0.1788383,0.178142 -0.6299357,0.56689
-0.426562,0.367603 -0.816445,0.704762 -0.866097,0.748792
-0.04247,0.03766 -0.069208,0.057 -0.078548,0.05788
h -0.00103
c 0.0049,-0.01624 0.1230173,-0.515653 0.2625163,-1.11001
0.1392746,-0.593401 0.2548586,-1.081305 0.2573486,-1.085205 z"/>
</svg>
