<?xml version="1.0" standalone="no"?>
<!DOCTYPE svg PUBLIC "-//W3C//DTD SVG 20010904//EN"
 "http://www.w3.org/TR/2001/REC-SVG-20010904/DTD/svg10.dtd">
<svg version="1.0" xmlns="http://www.w3.org/2000/svg"
 width="781.000000pt" height="779.000000pt" viewBox="0 0 781.000000 779.000000"
 preserveAspectRatio="xMidYMid meet">

<g transform="translate(0.000000,779.000000) scale(0.100000,-0.100000)"
fill="#000000" stroke="none">
<path d="M3515 7360 c-814 -81 -1559 -432 -2130 -1005 -580 -580 -918 -1298
-1006 -2135 -16 -148 -15 -502 0 -650 62 -586 250 -1117 562 -1585 147 -220
256 -353 443 -541 188 -187 321 -296 541 -443 473 -315 1022 -508 1597 -562
193 -18 636 -7 813 20 465 72 886 220 1273 450 881 522 1486 1402 1656 2411
39 230 49 387 43 665 -7 326 -39 547 -121 845 -215 784 -714 1477 -1396 1943
-448 305 -950 496 -1505 573 -140 19 -627 28 -770 14z m705 -295 c698 -87
1324 -385 1828 -869 535 -515 867 -1181 958 -1927 20 -161 23 -556 6 -704 -72
-603 -276 -1120 -628 -1585 -525 -694 -1270 -1126 -2149 -1246 -178 -25 -606
-25 -785 -1 -671 90 -1233 346 -1742 795 -491 432 -860 1075 -993 1729 -138
681 -51 1394 246 2012 172 358 378 643 671 926 322 312 677 536 1098 693 293
109 549 163 930 196 91 8 439 -4 560 -19z"/>
<path d="M3330 5150 l-644 -440 -396 0 c-431 0 -427 0 -467 -59 l-23 -34 0
-714 c0 -641 2 -719 16 -749 31 -64 30 -64 471 -64 l398 0 645 -442 c691 -472
677 -464 745 -428 58 31 55 -73 55 1686 l0 1616 -34 34 c-28 28 -41 34 -78 34
-42 0 -79 -24 -688 -440z"/>
<path d="M5310 5409 c-63 -26 -98 -95 -80 -159 5 -19 34 -59 64 -90 228 -234
402 -569 466 -895 81 -414 27 -815 -160 -1190 -78 -156 -161 -278 -280 -410
-98 -108 -111 -142 -82 -207 33 -76 124 -100 192 -50 48 35 191 207 265 317
180 268 290 552 340 880 24 151 24 422 1 580 -47 315 -152 596 -317 850 -116
179 -261 346 -320 369 -45 18 -54 19 -89 5z"/>
<path d="M4930 5037 c-56 -29 -87 -117 -58 -170 6 -12 39 -52 73 -89 149 -162
259 -378 310 -608 25 -115 31 -364 11 -480 -45 -260 -148 -474 -326 -678 -81
-94 -95 -133 -66 -194 22 -45 63 -68 123 -68 47 0 49 1 126 81 187 195 325
466 389 762 32 150 32 444 0 604 -39 196 -122 401 -226 563 -60 92 -191 247
-229 271 -36 22 -91 25 -127 6z"/>
<path d="M4575 4676 c-96 -43 -103 -150 -17 -240 56 -59 85 -101 127 -184 94
-189 107 -412 36 -619 -35 -101 -76 -170 -158 -270 -60 -72 -69 -93 -63 -148
7 -63 74 -111 143 -102 73 10 192 151 277 329 148 310 142 644 -19 952 -46 89
-155 234 -201 268 -34 25 -88 31 -125 14z"/>
</g>
</svg>
