<?xml version="1.0" standalone="no"?>
<!DOCTYPE svg PUBLIC "-//W3C//DTD SVG 20010904//EN"
 "http://www.w3.org/TR/2001/REC-SVG-20010904/DTD/svg10.dtd">
<svg version="1.0" xmlns="http://www.w3.org/2000/svg"
 width="780.000000pt" height="780.000000pt" viewBox="0 0 780.000000 780.000000"
 preserveAspectRatio="xMidYMid meet">

<g transform="translate(0.000000,780.000000) scale(0.100000,-0.100000)"
fill="#000000" stroke="none">
<path d="M3625 7329 c-1255 -68 -2383 -824 -2931 -1964 -420 -874 -454 -1889
-94 -2795 173 -436 431 -823 774 -1165 296 -295 555 -480 921 -660 355 -175
683 -274 1095 -332 159 -22 669 -25 830 -5 420 53 768 156 1135 337 376 185
632 369 935 674 327 329 556 668 735 1086 254 595 335 1271 229 1920 -243
1490 -1433 2658 -2929 2874 -77 11 -219 25 -315 31 -190 11 -180 11 -385 -1z
m605 -304 c603 -83 1126 -307 1600 -683 127 -102 376 -351 484 -487 141 -177
259 -363 366 -580 141 -285 211 -487 269 -771 46 -227 63 -401 64 -639 0 -511
-104 -956 -333 -1420 -240 -487 -608 -909 -1060 -1218 -745 -507 -1655 -675
-2535 -467 -1107 261 -2006 1118 -2321 2213 -93 323 -129 607 -121 962 8 347
48 593 148 902 162 500 414 911 788 1283 534 531 1214 849 1971 920 138 13
544 4 680 -15z"/>
<path d="M2429 5857 c-39 -26 -63 -85 -53 -131 9 -44 3024 -3062 3072 -3075
91 -26 180 63 158 156 -5 19 -478 499 -1514 1536 -829 830 -1519 1515 -1534
1523 -39 21 -90 17 -129 -9z"/>
<path d="M4185 5249 c-258 -177 -472 -323 -475 -326 -5 -5 1092 -1103 1102
-1103 5 0 8 369 8 820 0 675 -2 827 -14 854 -20 48 -61 76 -110 76 -37 0 -82
-29 -511 -321z"/>
<path d="M2543 4670 c-17 -10 -37 -28 -42 -39 -8 -13 -11 -255 -11 -756 l0
-737 34 -34 34 -34 404 0 403 0 630 -432 c347 -237 644 -437 662 -444 63 -27
143 17 157 87 3 17 6 201 6 408 l0 376 -813 813 -812 812 -310 0 c-289 0 -312
-1 -342 -20z"/>
</g>
</svg>
